<svg xmlns="http://www.w3.org/2000/svg" viewBox="0 0 50 50"><defs><style>.a{fill:#1d1e1e;}</style></defs><path class="a" d="M28.91,13.661c2.95,2.93,5.74,5.55,8.29,7.83A5.34,5.34,0,0,1,44.87,28c1.94,1.57,3.29,2.61,4.28,3.35a24.909,24.909,0,0,0-4.31-21.54l-.3-.36C44.11,9.411,37.75,8.9,28.91,13.661Z"/><path class="a" d="M43.46,30.081c-.11.1-.21.21-.33.31a5.35,5.35,0,0,1-8.14-6.55c-3.14-2.45-6.45-5.18-9.57-8.07h0a2.481,2.481,0,0,1-.24-.23l.23.24a54.21,54.21,0,0,0-6.42,5.27c-.3.28-.58.57-.87.86a7.57,7.57,0,0,1-.32,7.55l1.36,1.12a48.7,48.7,0,0,0,6.76,4.49,4.92,4.92,0,0,1,7.52,3.11A26.415,26.415,0,0,0,45.68,39a24.927,24.927,0,0,0,2.8-5.49C47.54,32.891,45.87,31.771,43.46,30.081Z"/><path class="a" d="M8.82,18.321A7.507,7.507,0,0,1,12.93,18l.85-.93a45.974,45.974,0,0,1,6.94-6h0a54.685,54.685,0,0,1-6.73-8.5A24.75,24.75,0,0,0,9.8,5.151a25.188,25.188,0,0,0-2.72,2.42A18.243,18.243,0,0,0,8.82,18.321Z"/><path class="a" d="M5.99,30.641c-.19-.2-.38-.41-.56-.64a7.549,7.549,0,0,1,0-9.16,15.993,15.993,0,0,1-1-10,25,25,0,0,0,.06,28.45A37.63,37.63,0,0,1,5.99,30.641Z"/><path class="a" d="M32.68,42a5.28,5.28,0,0,1-1.11,1.21,4.94,4.94,0,0,1-7.95-4.44,41.827,41.827,0,0,1-7.29-4.64c-.71-.58-1.38-1.15-2-1.71a7.639,7.639,0,0,1-3.48.57A27.5,27.5,0,0,0,9.11,44.3a25,25,0,0,0,31.07.54A24.83,24.83,0,0,0,42.36,43,44.172,44.172,0,0,1,32.68,42Z"/><path class="a" d="M24.24,8.871h0a26.644,26.644,0,0,1,16.69-3.12,25.059,25.059,0,0,0-23.62-4.54C19.66,4,21.99,6.491,24.24,8.871Z"/></svg>